<svg width="16" height="15" viewBox="0 0 16 15" fill="none" xmlns="http://www.w3.org/2000/svg">
<circle cx="7.65229" cy="7.60859" r="7.3913" fill="#F2994A"/>
<path d="M6.91895 6.82031H7.6709C8.02897 6.82031 8.29427 6.73079 8.4668 6.55176C8.63932 6.37272 8.72559 6.13509 8.72559 5.83887C8.72559 5.55241 8.63932 5.32943 8.4668 5.16992C8.29753 5.01042 8.06315 4.93066 7.76367 4.93066C7.49349 4.93066 7.26725 5.00553 7.08496 5.15527C6.90267 5.30176 6.81152 5.49382 6.81152 5.73145H5.40039C5.40039 5.36035 5.49967 5.02832 5.69824 4.73535C5.90007 4.43913 6.18001 4.20801 6.53809 4.04199C6.89941 3.87598 7.29655 3.79297 7.72949 3.79297C8.48145 3.79297 9.07064 3.97363 9.49707 4.33496C9.9235 4.69303 10.1367 5.18783 10.1367 5.81934C10.1367 6.14486 10.0374 6.44434 9.83887 6.71777C9.6403 6.99121 9.37988 7.20117 9.05762 7.34766C9.45801 7.49089 9.75586 7.70573 9.95117 7.99219C10.1497 8.27865 10.249 8.61719 10.249 9.00781C10.249 9.63932 10.0179 10.1455 9.55566 10.5264C9.09668 10.9072 8.48796 11.0977 7.72949 11.0977C7.01986 11.0977 6.4388 10.9105 5.98633 10.5361C5.53711 10.1618 5.3125 9.66699 5.3125 9.05176H6.72363C6.72363 9.31868 6.82292 9.53678 7.02148 9.70605C7.22331 9.87533 7.4707 9.95996 7.76367 9.95996C8.09896 9.95996 8.361 9.87207 8.5498 9.69629C8.74186 9.51725 8.83789 9.28125 8.83789 8.98828C8.83789 8.27865 8.44727 7.92383 7.66602 7.92383H6.91895V6.82031Z" fill="white"/>
</svg>
